<svg id="Lag_1" data-name="Lag 1" xmlns="http://www.w3.org/2000/svg" viewBox="0 0 304.03 127.93"><defs><style>.cls-1{font-size:121.84px;letter-spacing:-0.05em;}.cls-1,.cls-3{fill:#f2a63c;font-family:BebasNeue-Regular, Bebas Neue;}.cls-2{font-size:49.25px;letter-spacing:0.1em;}.cls-3{font-size:36.69px;letter-spacing:-0.08em;}.cls-4{letter-spacing:-0.05em;}.cls-5{fill:#733c05;}.cls-6{fill:#d97726;}</style></defs><text class="cls-1" transform="translate(0 103.56)"><tspan xml:space="preserve">spis    </tspan><tspan class="cls-2" x="194.2" y="0"> </tspan><tspan x="207.05" y="0">su </tspan></text><text class="cls-3" transform="translate(161.05 77.8) scale(1.27 1)">p<tspan class="cls-4" x="11.04" y="0">å</tspan></text><path class="cls-5" d="M900.67,505.72a12,12,0,0,1,3.18-7.26,15.37,15.37,0,0,1,6.8-3.63,17.67,17.67,0,0,1,1.82-.45c6.86-1.39,15.09-3.06,23.6,0,2.9,1,6.4,2.35,8.63,5.9a12.57,12.57,0,0,1,1.81,5.44" transform="translate(-745.97 -475.61)"/><path class="cls-5" d="M901.12,571.09a6.2,6.2,0,0,0,1.36,3.63,7.76,7.76,0,0,0,2.73,1.81,26,26,0,0,0,4.54,1.82c5.16,1.41,14.07.91,14.07.91a80.78,80.78,0,0,0,9.53-.46c8.17-.87,10.21-2.36,11.35-3.63a9,9,0,0,0,1.81-3.18v-.9" transform="translate(-745.97 -475.61)"/><ellipse class="cls-6" cx="918.05" cy="499.39" rx="1.32" ry="0.68" transform="translate(-586.12 743.05) rotate(-72.04)"/><ellipse class="cls-6" cx="924.35" cy="501.53" rx="1.32" ry="0.68" transform="translate(-583.8 750.52) rotate(-72.04)"/><ellipse class="cls-6" cx="930.25" cy="497.9" rx="0.68" ry="1.32" transform="translate(-712.05 578.96) rotate(-60)"/><ellipse class="cls-6" cx="910.73" cy="501.53" rx="0.68" ry="1.32" transform="matrix(0.5, -0.87, 0.87, 0.5, -724.95, 563.88)"/><ellipse class="cls-6" cx="937.97" cy="502.9" rx="0.68" ry="1.32" transform="translate(-712.51 588.14) rotate(-60)"/><ellipse class="cls-6" cx="922.13" cy="494.55" rx="0.68" ry="1.32" transform="translate(-835.39 -248.79) rotate(-13.38)"/></svg>